<svg width="16" height="16" viewBox="0 0 16 16" fill="none" xmlns="http://www.w3.org/2000/svg">
<g clip-path="url(#clip0_102_69)">
<g clip-path="url(#clip1_102_69)">
<path d="M0 1.6C0 0.716345 0.716344 0 1.6 0H14.4C15.2837 0 16 0.716344 16 1.6V14.4C16 15.2837 15.2837 16 14.4 16H1.6C0.716345 16 0 15.2837 0 14.4V1.6Z" fill="#8B5CF6"/>
<path d="M11.5964 10.3214L11.597 10.3766C11.5979 11.1411 11.3231 11.8781 10.8269 12.4415L10.8286 12.4391C10.3118 13.0321 9.61282 13.4191 8.85181 13.5336L8.83396 13.536V14.9522C8.83396 15.0179 8.80889 15.0809 8.76428 15.1274C8.71967 15.1739 8.65916 15.2 8.59607 15.2H8.58628H7.54602C7.48072 15.1992 7.4183 15.1718 7.37212 15.1237C7.32594 15.0756 7.29967 15.0106 7.29892 14.9426V13.536C6.95182 13.4877 6.61076 13.4004 6.28171 13.2756L6.31569 13.287C5.82418 13.1157 5.363 12.8615 4.95057 12.5345L4.96209 12.5435C4.83612 12.4485 4.71518 12.3466 4.59979 12.238L4.60382 12.2416C4.5397 12.1776 4.49477 12.1296 4.46904 12.0976C4.4274 12.0545 4.40281 11.9966 4.40014 11.9355C4.39748 11.8744 4.41693 11.8145 4.45464 11.7676L4.45406 11.7682L5.24837 10.6832C5.26947 10.6549 5.29619 10.6317 5.32671 10.6151C5.35723 10.5985 5.39083 10.589 5.4252 10.5872H5.42577C5.45993 10.5807 5.49515 10.584 5.52764 10.5968C5.56012 10.6096 5.58863 10.6314 5.61009 10.6598L5.61067 10.6604L5.62564 10.676C6.14644 11.1728 6.78382 11.5177 7.47345 11.6758L7.49994 11.6812C7.67159 11.722 7.86858 11.7454 8.07076 11.7454L8.10647 11.746C8.50449 11.746 8.87313 11.6164 9.17668 11.3955L9.17034 11.3997C9.32344 11.2919 9.44746 11.145 9.53055 10.973C9.61364 10.801 9.65303 10.6097 9.64496 10.4174V10.4198C9.64496 10.262 9.60176 10.115 9.52746 9.99075L9.52919 9.99435C9.45897 9.87045 9.37229 9.75752 9.27172 9.65891L9.27114 9.65831C9.13725 9.54131 8.99003 9.44195 8.83281 9.36247L8.82013 9.35647C8.61431 9.24686 8.44535 9.16105 8.31325 9.09904C8.18116 9.03703 7.97553 8.95002 7.69636 8.838C7.49591 8.75239 7.3377 8.68539 7.22174 8.63698C7.10577 8.58857 6.94756 8.51756 6.74711 8.42395C6.54667 8.33034 6.38596 8.24733 6.265 8.17492C6.14404 8.10251 5.9987 8.0075 5.82897 7.88989C5.68028 7.79008 5.54121 7.67553 5.41368 7.54784L5.41425 7.54844C5.29851 7.42643 5.18892 7.29824 5.08593 7.1644L5.07845 7.15479C4.96937 7.01704 4.87887 6.86441 4.80945 6.70114L4.80485 6.68854C4.73794 6.5228 4.68495 6.35134 4.64645 6.17607L4.64242 6.15447C4.59835 5.95329 4.57632 5.74755 4.57675 5.54119V5.50879C4.57675 4.75869 4.86533 4.07821 5.33361 3.58255L5.33304 3.58315C5.85501 3.01781 6.53712 2.64157 7.27934 2.50961L7.30007 2.50661V1.05503C7.30007 0.984823 7.3283 0.921215 7.37322 0.87621C7.39543 0.852111 7.42208 0.832937 7.45158 0.819841C7.48107 0.806745 7.51281 0.799996 7.54487 0.8H8.59722C8.72855 0.8 8.83511 0.911014 8.83511 1.04783V1.05803V2.47181C9.15191 2.50661 9.44106 2.57202 9.71811 2.66563L9.68759 2.65663C9.95197 2.74064 10.1743 2.83245 10.388 2.93927L10.358 2.92607C10.547 3.02388 10.7077 3.12409 10.8597 3.2357L10.8482 3.2273C11.0018 3.34012 11.102 3.41773 11.1489 3.46013C11.1957 3.50254 11.2343 3.53994 11.2647 3.57235C11.3061 3.60951 11.3329 3.6613 11.3399 3.71778C11.3469 3.77427 11.3337 3.83146 11.3027 3.87838L11.3033 3.87778L10.68 5.05153C10.6645 5.08761 10.6398 5.11861 10.6087 5.14123C10.5775 5.16384 10.5411 5.17723 10.5032 5.17995C10.4666 5.18787 10.4282 5.18691 10.392 5.17712C10.3559 5.16734 10.3224 5.14901 10.2941 5.12354H10.2947C10.2793 5.10754 10.2421 5.07553 10.1829 5.02753C10.1238 4.97952 10.0236 4.90851 9.88228 4.8145C9.74517 4.72294 9.60261 4.64057 9.45546 4.56787L9.43127 4.55707C9.25397 4.47214 9.06967 4.40405 8.88061 4.35364L8.85642 4.34824C8.6417 4.28701 8.4201 4.25593 8.19748 4.25583C7.77091 4.23548 7.34876 4.35832 6.99422 4.60628L7.00171 4.60148C6.80561 4.73722 6.65967 4.93841 6.58786 5.172C6.51606 5.40558 6.52265 5.65767 6.60657 5.88684L6.60427 5.87964C6.65726 6.01165 6.73444 6.12327 6.83121 6.21268L6.83236 6.21328C6.9251 6.30389 7.02417 6.3909 7.12785 6.47191L7.13707 6.47851C7.26091 6.56732 7.40318 6.65073 7.55236 6.72034L7.56964 6.72754C7.76241 6.82115 7.91793 6.89356 8.0362 6.94477C8.15447 6.99597 8.33457 7.06958 8.57649 7.1656C8.84913 7.27281 9.05744 7.35722 9.20144 7.41883C9.34544 7.48043 9.5409 7.57425 9.78781 7.70026C9.99579 7.80202 10.1962 7.91976 10.3874 8.05251L10.3707 8.04171C10.5493 8.17372 10.7048 8.30574 10.8528 8.44676L10.8494 8.44316C11.0089 8.58837 11.1449 8.75639 11.2532 8.94422L11.2583 8.95382C11.354 9.12964 11.4363 9.33427 11.4962 9.54849L11.5014 9.5689C11.5642 9.78792 11.5999 10.04 11.5999 10.3004V10.3256V10.3244L11.5964 10.3214Z" fill="white"/>
</g>
</g>
<defs>
<clipPath id="clip0_102_69">
<rect width="16" height="16" fill="white"/>
</clipPath>
<clipPath id="clip1_102_69">
<rect width="16" height="16" fill="white"/>
</clipPath>
</defs>
</svg>
